<svg xmlns="http://www.w3.org/2000/svg" viewBox="0 0 753.00 277.00" width="753" height="277">
<path fill="#e0453c" fill-rule="evenodd" d="M20.00 20.00 L27.00 20.00 L27.00 37.00 L20.00 37.00 Z M20.00 40.00 L27.00 40.00 L27.00 57.00 L20.00 57.00 Z M20.00 60.00 L27.00 60.00 L27.00 77.00 L20.00 77.00 Z M20.00 80.00 L27.00 80.00 L27.00 97.00 L20.00 97.00 Z M20.00 100.00 L27.00 100.00 L27.00 117.00 L20.00 117.00 Z M20.00 120.00 L27.00 120.00 L27.00 137.00 L20.00 137.00 Z M20.00 140.00 L27.00 140.00 L27.00 157.00 L20.00 157.00 Z M20.00 160.00 L27.00 160.00 L27.00 177.00 L20.00 177.00 Z M20.00 180.00 L27.00 180.00 L27.00 197.00 L20.00 197.00 Z M20.00 200.00 L27.00 200.00 L27.00 217.00 L20.00 217.00 Z M20.00 220.00 L27.00 220.00 L27.00 237.00 L20.00 237.00 Z M20.00 240.00 L27.00 240.00 L27.00 257.00 L20.00 257.00 Z M120.00 40.00 L127.00 40.00 L127.00 57.00 L120.00 57.00 Z M120.00 60.00 L127.00 60.00 L127.00 77.00 L120.00 77.00 Z M120.00 100.00 L127.00 100.00 L127.00 117.00 L120.00 117.00 Z M120.00 120.00 L127.00 120.00 L127.00 137.00 L120.00 137.00 Z M120.00 140.00 L127.00 140.00 L127.00 157.00 L120.00 157.00 Z M120.00 160.00 L127.00 160.00 L127.00 177.00 L120.00 177.00 Z M120.00 180.00 L127.00 180.00 L127.00 197.00 L120.00 197.00 Z M120.00 200.00 L127.00 200.00 L127.00 217.00 L120.00 217.00 Z M120.00 220.00 L127.00 220.00 L127.00 237.00 L120.00 237.00 Z M120.00 240.00 L127.00 240.00 L127.00 257.00 L120.00 257.00 Z M220.00 100.00 L227.00 100.00 L227.00 117.00 L220.00 117.00 Z M220.00 120.00 L227.00 120.00 L227.00 137.00 L220.00 137.00 Z M220.00 140.00 L227.00 140.00 L227.00 157.00 L220.00 157.00 Z M220.00 160.00 L227.00 160.00 L227.00 177.00 L220.00 177.00 Z M220.00 180.00 L227.00 180.00 L227.00 197.00 L220.00 197.00 Z M220.00 200.00 L227.00 200.00 L227.00 217.00 L220.00 217.00 Z M220.00 220.00 L227.00 220.00 L227.00 237.00 L220.00 237.00 Z M220.00 240.00 L227.00 240.00 L227.00 257.00 L220.00 257.00 Z M280.00 100.00 L287.00 100.00 L287.00 117.00 L280.00 117.00 Z M320.00 140.00 L327.00 140.00 L327.00 157.00 L320.00 157.00 Z M320.00 160.00 L327.00 160.00 L327.00 177.00 L320.00 177.00 Z M320.00 180.00 L327.00 180.00 L327.00 197.00 L320.00 197.00 Z M320.00 200.00 L327.00 200.00 L327.00 217.00 L320.00 217.00 Z M320.00 220.00 L327.00 220.00 L327.00 237.00 L320.00 237.00 Z M320.00 240.00 L327.00 240.00 L327.00 257.00 L320.00 257.00 Z M400.00 120.00 L407.00 120.00 L407.00 137.00 L400.00 137.00 Z M400.00 140.00 L407.00 140.00 L407.00 157.00 L400.00 157.00 Z M400.00 160.00 L407.00 160.00 L407.00 177.00 L400.00 177.00 Z M400.00 180.00 L407.00 180.00 L407.00 197.00 L400.00 197.00 Z M400.00 200.00 L407.00 200.00 L407.00 217.00 L400.00 217.00 Z M400.00 220.00 L407.00 220.00 L407.00 237.00 L400.00 237.00 Z M420.00 100.00 L427.00 100.00 L427.00 117.00 L420.00 117.00 Z M420.00 240.00 L427.00 240.00 L427.00 257.00 L420.00 257.00 Z M500.00 140.00 L507.00 140.00 L507.00 157.00 L500.00 157.00 Z M580.00 100.00 L587.00 100.00 L587.00 117.00 L580.00 117.00 Z M580.00 120.00 L587.00 120.00 L587.00 137.00 L580.00 137.00 Z M580.00 140.00 L587.00 140.00 L587.00 157.00 L580.00 157.00 Z M580.00 160.00 L587.00 160.00 L587.00 177.00 L580.00 177.00 Z M580.00 180.00 L587.00 180.00 L587.00 197.00 L580.00 197.00 Z M580.00 200.00 L587.00 200.00 L587.00 217.00 L580.00 217.00 Z M580.00 220.00 L587.00 220.00 L587.00 237.00 L580.00 237.00 Z M580.00 240.00 L587.00 240.00 L587.00 257.00 L580.00 257.00 Z M640.00 100.00 L647.00 100.00 L647.00 117.00 L640.00 117.00 Z M680.00 140.00 L687.00 140.00 L687.00 157.00 L680.00 157.00 Z M680.00 160.00 L687.00 160.00 L687.00 177.00 L680.00 177.00 Z M680.00 180.00 L687.00 180.00 L687.00 197.00 L680.00 197.00 Z M680.00 200.00 L687.00 200.00 L687.00 217.00 L680.00 217.00 Z M680.00 220.00 L687.00 220.00 L687.00 237.00 L680.00 237.00 Z M680.00 240.00 L687.00 240.00 L687.00 257.00 L680.00 257.00 Z"/>
<path fill="#43cbd6" fill-rule="evenodd" d="M67.00 20.00 L73.00 20.00 L73.00 37.00 L67.00 37.00 Z M67.00 40.00 L73.00 40.00 L73.00 57.00 L67.00 57.00 Z M67.00 60.00 L73.00 60.00 L73.00 77.00 L67.00 77.00 Z M67.00 80.00 L73.00 80.00 L73.00 97.00 L67.00 97.00 Z M67.00 100.00 L73.00 100.00 L73.00 117.00 L67.00 117.00 Z M67.00 120.00 L73.00 120.00 L73.00 137.00 L67.00 137.00 Z M67.00 140.00 L73.00 140.00 L73.00 157.00 L67.00 157.00 Z M67.00 160.00 L73.00 160.00 L73.00 177.00 L67.00 177.00 Z M67.00 180.00 L73.00 180.00 L73.00 197.00 L67.00 197.00 Z M67.00 200.00 L73.00 200.00 L73.00 217.00 L67.00 217.00 Z M67.00 220.00 L73.00 220.00 L73.00 237.00 L67.00 237.00 Z M67.00 240.00 L73.00 240.00 L73.00 257.00 L67.00 257.00 Z M167.00 40.00 L173.00 40.00 L173.00 57.00 L167.00 57.00 Z M167.00 60.00 L173.00 60.00 L173.00 77.00 L167.00 77.00 Z M167.00 100.00 L173.00 100.00 L173.00 117.00 L167.00 117.00 Z M167.00 120.00 L173.00 120.00 L173.00 137.00 L167.00 137.00 Z M167.00 140.00 L173.00 140.00 L173.00 157.00 L167.00 157.00 Z M167.00 160.00 L173.00 160.00 L173.00 177.00 L167.00 177.00 Z M167.00 180.00 L173.00 180.00 L173.00 197.00 L167.00 197.00 Z M167.00 200.00 L173.00 200.00 L173.00 217.00 L167.00 217.00 Z M167.00 220.00 L173.00 220.00 L173.00 237.00 L167.00 237.00 Z M167.00 240.00 L173.00 240.00 L173.00 257.00 L167.00 257.00 Z M267.00 100.00 L273.00 100.00 L273.00 117.00 L267.00 117.00 Z M267.00 140.00 L273.00 140.00 L273.00 157.00 L267.00 157.00 Z M267.00 160.00 L273.00 160.00 L273.00 177.00 L267.00 177.00 Z M267.00 180.00 L273.00 180.00 L273.00 197.00 L267.00 197.00 Z M267.00 200.00 L273.00 200.00 L273.00 217.00 L267.00 217.00 Z M267.00 220.00 L273.00 220.00 L273.00 237.00 L267.00 237.00 Z M267.00 240.00 L273.00 240.00 L273.00 257.00 L267.00 257.00 Z M347.00 100.00 L353.00 100.00 L353.00 117.00 L347.00 117.00 Z M367.00 120.00 L373.00 120.00 L373.00 137.00 L367.00 137.00 Z M367.00 140.00 L373.00 140.00 L373.00 157.00 L367.00 157.00 Z M367.00 160.00 L373.00 160.00 L373.00 177.00 L367.00 177.00 Z M367.00 180.00 L373.00 180.00 L373.00 197.00 L367.00 197.00 Z M367.00 200.00 L373.00 200.00 L373.00 217.00 L367.00 217.00 Z M367.00 220.00 L373.00 220.00 L373.00 237.00 L367.00 237.00 Z M367.00 240.00 L373.00 240.00 L373.00 257.00 L367.00 257.00 Z M447.00 140.00 L453.00 140.00 L453.00 157.00 L447.00 157.00 Z M447.00 200.00 L453.00 200.00 L453.00 217.00 L447.00 217.00 Z M527.00 100.00 L533.00 100.00 L533.00 117.00 L527.00 117.00 Z M527.00 240.00 L533.00 240.00 L533.00 257.00 L527.00 257.00 Z M547.00 120.00 L553.00 120.00 L553.00 137.00 L547.00 137.00 Z M547.00 140.00 L553.00 140.00 L553.00 157.00 L547.00 157.00 Z M547.00 160.00 L553.00 160.00 L553.00 177.00 L547.00 177.00 Z M547.00 180.00 L553.00 180.00 L553.00 197.00 L547.00 197.00 Z M547.00 220.00 L553.00 220.00 L553.00 237.00 L547.00 237.00 Z M627.00 100.00 L633.00 100.00 L633.00 117.00 L627.00 117.00 Z M627.00 140.00 L633.00 140.00 L633.00 157.00 L627.00 157.00 Z M627.00 160.00 L633.00 160.00 L633.00 177.00 L627.00 177.00 Z M627.00 180.00 L633.00 180.00 L633.00 197.00 L627.00 197.00 Z M627.00 200.00 L633.00 200.00 L633.00 217.00 L627.00 217.00 Z M627.00 220.00 L633.00 220.00 L633.00 237.00 L627.00 237.00 Z M627.00 240.00 L633.00 240.00 L633.00 257.00 L627.00 257.00 Z M707.00 100.00 L713.00 100.00 L713.00 117.00 L707.00 117.00 Z M727.00 120.00 L733.00 120.00 L733.00 137.00 L727.00 137.00 Z M727.00 140.00 L733.00 140.00 L733.00 157.00 L727.00 157.00 Z M727.00 160.00 L733.00 160.00 L733.00 177.00 L727.00 177.00 Z M727.00 180.00 L733.00 180.00 L733.00 197.00 L727.00 197.00 Z M727.00 200.00 L733.00 200.00 L733.00 217.00 L727.00 217.00 Z M727.00 220.00 L733.00 220.00 L733.00 237.00 L727.00 237.00 Z M727.00 240.00 L733.00 240.00 L733.00 257.00 L727.00 257.00 Z"/>
<path fill="#111111" fill-rule="evenodd" d="M28.00 20.00 L45.00 20.00 L45.00 37.00 L28.00 37.00 Z M28.00 40.00 L45.00 40.00 L45.00 57.00 L28.00 57.00 Z M28.00 60.00 L45.00 60.00 L45.00 77.00 L28.00 77.00 Z M28.00 80.00 L45.00 80.00 L45.00 97.00 L28.00 97.00 Z M28.00 100.00 L45.00 100.00 L45.00 117.00 L28.00 117.00 Z M28.00 120.00 L45.00 120.00 L45.00 137.00 L28.00 137.00 Z M28.00 140.00 L45.00 140.00 L45.00 157.00 L28.00 157.00 Z M28.00 160.00 L45.00 160.00 L45.00 177.00 L28.00 177.00 Z M28.00 180.00 L45.00 180.00 L45.00 197.00 L28.00 197.00 Z M28.00 200.00 L45.00 200.00 L45.00 217.00 L28.00 217.00 Z M28.00 220.00 L45.00 220.00 L45.00 237.00 L28.00 237.00 Z M28.00 240.00 L45.00 240.00 L45.00 257.00 L28.00 257.00 Z M48.00 20.00 L65.00 20.00 L65.00 37.00 L48.00 37.00 Z M48.00 40.00 L65.00 40.00 L65.00 57.00 L48.00 57.00 Z M48.00 60.00 L65.00 60.00 L65.00 77.00 L48.00 77.00 Z M48.00 80.00 L65.00 80.00 L65.00 97.00 L48.00 97.00 Z M48.00 100.00 L65.00 100.00 L65.00 117.00 L48.00 117.00 Z M48.00 120.00 L65.00 120.00 L65.00 137.00 L48.00 137.00 Z M48.00 140.00 L65.00 140.00 L65.00 157.00 L48.00 157.00 Z M48.00 160.00 L65.00 160.00 L65.00 177.00 L48.00 177.00 Z M48.00 180.00 L65.00 180.00 L65.00 197.00 L48.00 197.00 Z M48.00 200.00 L65.00 200.00 L65.00 217.00 L48.00 217.00 Z M48.00 220.00 L65.00 220.00 L65.00 237.00 L48.00 237.00 Z M48.00 240.00 L65.00 240.00 L65.00 257.00 L48.00 257.00 Z M128.00 40.00 L145.00 40.00 L145.00 57.00 L128.00 57.00 Z M128.00 60.00 L145.00 60.00 L145.00 77.00 L128.00 77.00 Z M128.00 100.00 L145.00 100.00 L145.00 117.00 L128.00 117.00 Z M128.00 120.00 L145.00 120.00 L145.00 137.00 L128.00 137.00 Z M128.00 140.00 L145.00 140.00 L145.00 157.00 L128.00 157.00 Z M128.00 160.00 L145.00 160.00 L145.00 177.00 L128.00 177.00 Z M128.00 180.00 L145.00 180.00 L145.00 197.00 L128.00 197.00 Z M128.00 200.00 L145.00 200.00 L145.00 217.00 L128.00 217.00 Z M128.00 220.00 L145.00 220.00 L145.00 237.00 L128.00 237.00 Z M128.00 240.00 L145.00 240.00 L145.00 257.00 L128.00 257.00 Z M148.00 40.00 L165.00 40.00 L165.00 57.00 L148.00 57.00 Z M148.00 60.00 L165.00 60.00 L165.00 77.00 L148.00 77.00 Z M148.00 100.00 L165.00 100.00 L165.00 117.00 L148.00 117.00 Z M148.00 120.00 L165.00 120.00 L165.00 137.00 L148.00 137.00 Z M148.00 140.00 L165.00 140.00 L165.00 157.00 L148.00 157.00 Z M148.00 160.00 L165.00 160.00 L165.00 177.00 L148.00 177.00 Z M148.00 180.00 L165.00 180.00 L165.00 197.00 L148.00 197.00 Z M148.00 200.00 L165.00 200.00 L165.00 217.00 L148.00 217.00 Z M148.00 220.00 L165.00 220.00 L165.00 237.00 L148.00 237.00 Z M148.00 240.00 L165.00 240.00 L165.00 257.00 L148.00 257.00 Z M228.00 100.00 L245.00 100.00 L245.00 117.00 L228.00 117.00 Z M228.00 120.00 L245.00 120.00 L245.00 137.00 L228.00 137.00 Z M228.00 140.00 L245.00 140.00 L245.00 157.00 L228.00 157.00 Z M228.00 160.00 L245.00 160.00 L245.00 177.00 L228.00 177.00 Z M228.00 180.00 L245.00 180.00 L245.00 197.00 L228.00 197.00 Z M228.00 200.00 L245.00 200.00 L245.00 217.00 L228.00 217.00 Z M228.00 220.00 L245.00 220.00 L245.00 237.00 L228.00 237.00 Z M228.00 240.00 L245.00 240.00 L245.00 257.00 L228.00 257.00 Z M248.00 100.00 L265.00 100.00 L265.00 117.00 L248.00 117.00 Z M248.00 120.00 L265.00 120.00 L265.00 137.00 L248.00 137.00 Z M248.00 140.00 L265.00 140.00 L265.00 157.00 L248.00 157.00 Z M248.00 160.00 L265.00 160.00 L265.00 177.00 L248.00 177.00 Z M248.00 180.00 L265.00 180.00 L265.00 197.00 L248.00 197.00 Z M248.00 200.00 L265.00 200.00 L265.00 217.00 L248.00 217.00 Z M248.00 220.00 L265.00 220.00 L265.00 237.00 L248.00 237.00 Z M248.00 240.00 L265.00 240.00 L265.00 257.00 L248.00 257.00 Z M268.00 120.00 L285.00 120.00 L285.00 137.00 L268.00 137.00 Z M288.00 100.00 L305.00 100.00 L305.00 117.00 L288.00 117.00 Z M288.00 120.00 L305.00 120.00 L305.00 137.00 L288.00 137.00 Z M308.00 100.00 L325.00 100.00 L325.00 117.00 L308.00 117.00 Z M308.00 120.00 L325.00 120.00 L325.00 137.00 L308.00 137.00 Z M328.00 100.00 L345.00 100.00 L345.00 117.00 L328.00 117.00 Z M328.00 120.00 L345.00 120.00 L345.00 137.00 L328.00 137.00 Z M328.00 140.00 L345.00 140.00 L345.00 157.00 L328.00 157.00 Z M328.00 160.00 L345.00 160.00 L345.00 177.00 L328.00 177.00 Z M328.00 180.00 L345.00 180.00 L345.00 197.00 L328.00 197.00 Z M328.00 200.00 L345.00 200.00 L345.00 217.00 L328.00 217.00 Z M328.00 220.00 L345.00 220.00 L345.00 237.00 L328.00 237.00 Z M328.00 240.00 L345.00 240.00 L345.00 257.00 L328.00 257.00 Z M348.00 120.00 L365.00 120.00 L365.00 137.00 L348.00 137.00 Z M348.00 140.00 L365.00 140.00 L365.00 157.00 L348.00 157.00 Z M348.00 160.00 L365.00 160.00 L365.00 177.00 L348.00 177.00 Z M348.00 180.00 L365.00 180.00 L365.00 197.00 L348.00 197.00 Z M348.00 200.00 L365.00 200.00 L365.00 217.00 L348.00 217.00 Z M348.00 220.00 L365.00 220.00 L365.00 237.00 L348.00 237.00 Z M348.00 240.00 L365.00 240.00 L365.00 257.00 L348.00 257.00 Z M408.00 120.00 L425.00 120.00 L425.00 137.00 L408.00 137.00 Z M408.00 140.00 L425.00 140.00 L425.00 157.00 L408.00 157.00 Z M408.00 160.00 L425.00 160.00 L425.00 177.00 L408.00 177.00 Z M408.00 180.00 L425.00 180.00 L425.00 197.00 L408.00 197.00 Z M408.00 200.00 L425.00 200.00 L425.00 217.00 L408.00 217.00 Z M408.00 220.00 L425.00 220.00 L425.00 237.00 L408.00 237.00 Z M428.00 100.00 L445.00 100.00 L445.00 117.00 L428.00 117.00 Z M428.00 120.00 L445.00 120.00 L445.00 137.00 L428.00 137.00 Z M428.00 140.00 L445.00 140.00 L445.00 157.00 L428.00 157.00 Z M428.00 160.00 L445.00 160.00 L445.00 177.00 L428.00 177.00 Z M428.00 180.00 L445.00 180.00 L445.00 197.00 L428.00 197.00 Z M428.00 200.00 L445.00 200.00 L445.00 217.00 L428.00 217.00 Z M428.00 220.00 L445.00 220.00 L445.00 237.00 L428.00 237.00 Z M428.00 240.00 L445.00 240.00 L445.00 257.00 L428.00 257.00 Z M448.00 100.00 L465.00 100.00 L465.00 117.00 L448.00 117.00 Z M448.00 120.00 L465.00 120.00 L465.00 137.00 L448.00 137.00 Z M448.00 160.00 L465.00 160.00 L465.00 177.00 L448.00 177.00 Z M448.00 180.00 L465.00 180.00 L465.00 197.00 L448.00 197.00 Z M448.00 220.00 L465.00 220.00 L465.00 237.00 L448.00 237.00 Z M448.00 240.00 L465.00 240.00 L465.00 257.00 L448.00 257.00 Z M468.00 100.00 L485.00 100.00 L485.00 117.00 L468.00 117.00 Z M468.00 120.00 L485.00 120.00 L485.00 137.00 L468.00 137.00 Z M468.00 160.00 L485.00 160.00 L485.00 177.00 L468.00 177.00 Z M468.00 180.00 L485.00 180.00 L485.00 197.00 L468.00 197.00 Z M468.00 220.00 L485.00 220.00 L485.00 237.00 L468.00 237.00 Z M468.00 240.00 L485.00 240.00 L485.00 257.00 L468.00 257.00 Z M488.00 100.00 L505.00 100.00 L505.00 117.00 L488.00 117.00 Z M488.00 120.00 L505.00 120.00 L505.00 137.00 L488.00 137.00 Z M488.00 160.00 L505.00 160.00 L505.00 177.00 L488.00 177.00 Z M488.00 180.00 L505.00 180.00 L505.00 197.00 L488.00 197.00 Z M488.00 220.00 L505.00 220.00 L505.00 237.00 L488.00 237.00 Z M488.00 240.00 L505.00 240.00 L505.00 257.00 L488.00 257.00 Z M508.00 100.00 L525.00 100.00 L525.00 117.00 L508.00 117.00 Z M508.00 120.00 L525.00 120.00 L525.00 137.00 L508.00 137.00 Z M508.00 140.00 L525.00 140.00 L525.00 157.00 L508.00 157.00 Z M508.00 160.00 L525.00 160.00 L525.00 177.00 L508.00 177.00 Z M508.00 180.00 L525.00 180.00 L525.00 197.00 L508.00 197.00 Z M508.00 220.00 L525.00 220.00 L525.00 237.00 L508.00 237.00 Z M508.00 240.00 L525.00 240.00 L525.00 257.00 L508.00 257.00 Z M528.00 120.00 L545.00 120.00 L545.00 137.00 L528.00 137.00 Z M528.00 140.00 L545.00 140.00 L545.00 157.00 L528.00 157.00 Z M528.00 160.00 L545.00 160.00 L545.00 177.00 L528.00 177.00 Z M528.00 180.00 L545.00 180.00 L545.00 197.00 L528.00 197.00 Z M528.00 220.00 L545.00 220.00 L545.00 237.00 L528.00 237.00 Z M588.00 100.00 L605.00 100.00 L605.00 117.00 L588.00 117.00 Z M588.00 120.00 L605.00 120.00 L605.00 137.00 L588.00 137.00 Z M588.00 140.00 L605.00 140.00 L605.00 157.00 L588.00 157.00 Z M588.00 160.00 L605.00 160.00 L605.00 177.00 L588.00 177.00 Z M588.00 180.00 L605.00 180.00 L605.00 197.00 L588.00 197.00 Z M588.00 200.00 L605.00 200.00 L605.00 217.00 L588.00 217.00 Z M588.00 220.00 L605.00 220.00 L605.00 237.00 L588.00 237.00 Z M588.00 240.00 L605.00 240.00 L605.00 257.00 L588.00 257.00 Z M608.00 100.00 L625.00 100.00 L625.00 117.00 L608.00 117.00 Z M608.00 120.00 L625.00 120.00 L625.00 137.00 L608.00 137.00 Z M608.00 140.00 L625.00 140.00 L625.00 157.00 L608.00 157.00 Z M608.00 160.00 L625.00 160.00 L625.00 177.00 L608.00 177.00 Z M608.00 180.00 L625.00 180.00 L625.00 197.00 L608.00 197.00 Z M608.00 200.00 L625.00 200.00 L625.00 217.00 L608.00 217.00 Z M608.00 220.00 L625.00 220.00 L625.00 237.00 L608.00 237.00 Z M608.00 240.00 L625.00 240.00 L625.00 257.00 L608.00 257.00 Z M628.00 120.00 L645.00 120.00 L645.00 137.00 L628.00 137.00 Z M648.00 100.00 L665.00 100.00 L665.00 117.00 L648.00 117.00 Z M648.00 120.00 L665.00 120.00 L665.00 137.00 L648.00 137.00 Z M668.00 100.00 L685.00 100.00 L685.00 117.00 L668.00 117.00 Z M668.00 120.00 L685.00 120.00 L685.00 137.00 L668.00 137.00 Z M688.00 100.00 L705.00 100.00 L705.00 117.00 L688.00 117.00 Z M688.00 120.00 L705.00 120.00 L705.00 137.00 L688.00 137.00 Z M688.00 140.00 L705.00 140.00 L705.00 157.00 L688.00 157.00 Z M688.00 160.00 L705.00 160.00 L705.00 177.00 L688.00 177.00 Z M688.00 180.00 L705.00 180.00 L705.00 197.00 L688.00 197.00 Z M688.00 200.00 L705.00 200.00 L705.00 217.00 L688.00 217.00 Z M688.00 220.00 L705.00 220.00 L705.00 237.00 L688.00 237.00 Z M688.00 240.00 L705.00 240.00 L705.00 257.00 L688.00 257.00 Z M708.00 120.00 L725.00 120.00 L725.00 137.00 L708.00 137.00 Z M708.00 140.00 L725.00 140.00 L725.00 157.00 L708.00 157.00 Z M708.00 160.00 L725.00 160.00 L725.00 177.00 L708.00 177.00 Z M708.00 180.00 L725.00 180.00 L725.00 197.00 L708.00 197.00 Z M708.00 200.00 L725.00 200.00 L725.00 217.00 L708.00 217.00 Z M708.00 220.00 L725.00 220.00 L725.00 237.00 L708.00 237.00 Z M708.00 240.00 L725.00 240.00 L725.00 257.00 L708.00 257.00 Z"/>
</svg>
